<svg xmlns="http://www.w3.org/2000/svg" xmlns:xlink="http://www.w3.org/1999/xlink" width="100" zoomAndPan="magnify" viewBox="0 0 75 74.999997" height="100" preserveAspectRatio="xMidYMid meet" version="1.0"><defs><clipPath id="ae05421b06"><path d="M 19 0.898438 L 59 0.898438 L 59 20 L 19 20 Z M 19 0.898438 " clip-rule="nonzero"/></clipPath><clipPath id="3a6296cd35"><path d="M 38 0.898438 L 59 0.898438 L 59 20 L 38 20 Z M 38 0.898438 " clip-rule="nonzero"/></clipPath><clipPath id="da1d28e4ae"><path d="M 10.503906 45 L 40 45 L 40 75 L 10.503906 75 Z M 10.503906 45 " clip-rule="nonzero"/></clipPath><clipPath id="820167516e"><path d="M 39 45 L 67.503906 45 L 67.503906 75 L 39 75 Z M 39 45 " clip-rule="nonzero"/></clipPath></defs><path fill="#c58e65" d="M 46.746094 50.65625 L 30.917969 50.65625 L 30.917969 37.660156 L 46.746094 37.660156 L 46.746094 50.65625 " fill-opacity="1" fill-rule="nonzero"/><path fill="#e5b829" d="M 41.40625 75.175781 L 36.601562 75.175781 L 36.601562 53.351562 L 41.40625 53.351562 L 41.40625 75.175781 " fill-opacity="1" fill-rule="nonzero"/><g clip-path="url(#ae05421b06)"><path fill="#253849" d="M 58.4375 11.496094 C 56.0625 7 49.121094 0.953125 38.960938 0.910156 C 38.945312 0.910156 38.925781 0.90625 38.910156 0.90625 C 38.890625 0.90625 38.871094 0.90625 38.851562 0.90625 C 28.695312 0.949219 21.902344 7 19.527344 11.496094 C 19.527344 11.496094 23.128906 14.847656 24.957031 18.890625 C 24.308594 19.097656 53.589844 19.199219 52.992188 18.9375 C 54.8125 14.871094 58.4375 11.496094 58.4375 11.496094 " fill-opacity="1" fill-rule="nonzero"/></g><g clip-path="url(#3a6296cd35)"><path fill="#244a6d" d="M 38.960938 0.910156 L 38.960938 19.089844 C 46.125 19.109375 53.289062 19.070312 52.992188 18.9375 C 54.8125 14.871094 58.4375 11.496094 58.4375 11.496094 C 56.0625 7 49.121094 0.953125 38.960938 0.910156 " fill-opacity="1" fill-rule="nonzero"/></g><path fill="#3d78bb" d="M 39.003906 22.585938 L 38.921875 22.585938 C 31.234375 22.585938 26.417969 17.457031 26.417969 17.457031 L 27.011719 15.300781 L 26.59375 15.019531 C 28.425781 12.324219 33.0625 10.71875 39.003906 10.71875 C 44.945312 10.71875 49.585938 12.324219 51.414062 15.019531 L 50.929688 15.347656 L 51.511719 17.457031 C 51.511719 17.457031 46.695312 22.585938 39.003906 22.585938 " fill-opacity="1" fill-rule="nonzero"/><path fill="#244a6d" d="M 38.960938 18.40625 C 46.792969 18.398438 49.925781 16.179688 50.703125 15.5 L 50.585938 15.582031 C 49.96875 14.675781 47.316406 11.722656 39.003906 11.722656 C 30.695312 11.722656 28.039062 14.675781 27.425781 15.582031 L 27.011719 15.300781 C 27.011719 15.300781 29.71875 18.398438 38.960938 18.40625 " fill-opacity="1" fill-rule="nonzero"/><path fill="#305c85" d="M 52.503906 45.097656 L 48.386719 39.832031 L 47.636719 38.878906 L 46.722656 39.671875 C 45.40625 40.808594 40.371094 43.152344 38.542969 43.960938 L 37.488281 44.421875 L 37.949219 45.476562 L 40.875 52.191406 L 41.402344 53.410156 L 42.535156 52.714844 L 52.199219 46.792969 L 53.300781 46.117188 L 52.503906 45.097656 " fill-opacity="1" fill-rule="nonzero"/><path fill="#305c85" d="M 39.457031 43.953125 C 37.621094 43.171875 32.558594 40.890625 31.214844 39.75 L 30.296875 38.972656 L 29.558594 39.917969 L 25.507812 45.097656 L 24.710938 46.117188 L 25.8125 46.792969 L 35.476562 52.714844 L 36.609375 53.410156 L 37.136719 52.191406 L 40.0625 45.476562 L 40.527344 44.410156 L 39.457031 43.953125 " fill-opacity="1" fill-rule="nonzero"/><g clip-path="url(#da1d28e4ae)"><path fill="#253849" d="M 36.558594 53.300781 L 35.5 52.550781 L 25.835938 45.695312 L 25.28125 45.300781 L 13.179688 49.808594 L 10.503906 55.660156 L 16.523438 75.890625 L 39.003906 75.890625 L 39.003906 74.777344 C 38.976562 74.78125 38.953125 74.792969 38.921875 74.792969 C 38.367188 74.792969 37.917969 74.34375 37.917969 73.792969 C 37.917969 73.234375 38.367188 72.789062 38.921875 72.789062 C 38.953125 72.789062 38.976562 72.800781 39.003906 72.804688 L 39.003906 70.34375 C 38.976562 70.34375 38.953125 70.359375 38.921875 70.359375 C 38.367188 70.359375 37.917969 69.910156 37.917969 69.355469 C 37.917969 68.804688 38.367188 68.355469 38.921875 68.355469 C 38.953125 68.355469 38.976562 68.367188 39.003906 68.371094 L 39.003906 65.910156 C 38.976562 65.914062 38.953125 65.925781 38.921875 65.925781 C 38.367188 65.925781 37.917969 65.476562 37.917969 64.921875 C 37.917969 64.371094 38.367188 63.921875 38.921875 63.921875 C 38.953125 63.921875 38.976562 63.933594 39.003906 63.9375 L 39.003906 61.476562 C 38.976562 61.476562 38.953125 61.492188 38.921875 61.492188 C 38.367188 61.492188 37.917969 61.042969 37.917969 60.488281 C 37.917969 59.933594 38.367188 59.484375 38.921875 59.484375 C 38.953125 59.484375 38.976562 59.5 39.003906 59.503906 L 39.003906 57.039062 C 38.976562 57.042969 38.953125 57.058594 38.921875 57.058594 C 38.367188 57.058594 37.917969 56.609375 37.917969 56.054688 C 37.917969 55.5 38.367188 55.054688 38.921875 55.054688 C 38.953125 55.054688 38.976562 55.066406 39.003906 55.070312 L 39.003906 46.804688 L 37.019531 52.085938 L 36.558594 53.300781 " fill-opacity="1" fill-rule="nonzero"/></g><g clip-path="url(#820167516e)"><path fill="#244a6d" d="M 64.832031 49.808594 L 52.730469 45.300781 L 52.171875 45.699219 L 42.511719 52.550781 L 41.449219 53.300781 L 40.992188 52.085938 L 39.003906 46.804688 L 39.003906 55.070312 C 39.519531 55.113281 39.925781 55.53125 39.925781 56.054688 C 39.925781 56.578125 39.519531 56.996094 39.003906 57.039062 L 39.003906 59.503906 C 39.519531 59.546875 39.925781 59.964844 39.925781 60.488281 C 39.925781 61.011719 39.519531 61.429688 39.003906 61.472656 L 39.003906 63.9375 C 39.519531 63.984375 39.925781 64.398438 39.925781 64.921875 C 39.925781 65.445312 39.519531 65.863281 39.003906 65.910156 L 39.003906 68.371094 C 39.519531 68.417969 39.925781 68.832031 39.925781 69.355469 C 39.925781 69.882812 39.519531 70.296875 39.003906 70.34375 L 39.003906 72.804688 C 39.519531 72.847656 39.925781 73.269531 39.925781 73.792969 C 39.925781 74.316406 39.519531 74.730469 39.003906 74.777344 L 39.003906 75.890625 L 61.488281 75.890625 L 67.503906 55.660156 L 64.832031 49.808594 " fill-opacity="1" fill-rule="nonzero"/></g><path fill="#f8de1d" d="M 57.390625 64.609375 C 57.183594 67.179688 53.75 67.179688 53.28125 68.253906 L 53.253906 68.328125 L 53.226562 68.253906 C 52.757812 67.179688 49.328125 67.179688 49.121094 64.609375 C 49.121094 62.421875 50.777344 60.75 48.96875 59.5 L 50.3125 58.414062 C 50.84375 59.257812 52.746094 59.695312 53.253906 58.300781 C 53.757812 59.695312 55.664062 59.257812 56.195312 58.414062 L 57.542969 59.5 C 55.734375 60.75 57.390625 62.421875 57.390625 64.609375 " fill-opacity="1" fill-rule="nonzero"/><path fill="#e5b829" d="M 56.425781 59.542969 L 56.246094 59.402344 C 55.785156 59.734375 55.179688 59.9375 54.589844 59.9375 C 54.074219 59.9375 53.617188 59.785156 53.253906 59.511719 C 52.894531 59.785156 52.4375 59.9375 51.921875 59.9375 C 51.328125 59.9375 50.726562 59.734375 50.265625 59.402344 L 50.085938 59.542969 C 50.839844 60.546875 50.5 61.71875 50.21875 62.699219 C 50.039062 63.304688 49.859375 63.925781 49.855469 64.582031 C 49.957031 65.648438 50.800781 66.089844 52.082031 66.636719 C 52.507812 66.820312 52.917969 66.996094 53.253906 67.226562 C 53.589844 66.996094 54.003906 66.820312 54.429688 66.636719 C 55.707031 66.089844 56.554688 65.648438 56.652344 64.582031 C 56.648438 63.925781 56.46875 63.304688 56.292969 62.699219 C 56.011719 61.71875 55.671875 60.546875 56.425781 59.542969 " fill-opacity="1" fill-rule="nonzero"/><path fill="#e7b388" d="M 24.957031 18.890625 C 24.308594 19.097656 23.75 19.945312 24.128906 22.570312 C 24.878906 27.75 25.710938 29.777344 26.632812 29.777344 L 26.632812 29.726562 C 28.25 36.152344 32.449219 41.453125 38.921875 41.453125 C 45.390625 41.453125 49.59375 36.152344 51.210938 29.726562 L 51.207031 29.777344 C 52.128906 29.777344 52.960938 27.75 53.714844 22.570312 C 54.074219 20.09375 53.59375 19.199219 52.992188 18.9375 C 53.03125 18.84375 24.921875 18.8125 24.957031 18.890625 " fill-opacity="1" fill-rule="nonzero"/><path fill="#edc4a2" d="M 51.210938 29.726562 L 51.207031 29.777344 C 52.128906 29.777344 52.960938 27.75 53.714844 22.570312 C 54.074219 20.09375 53.589844 19.199219 52.992188 18.9375 C 53.015625 18.890625 45.957031 18.859375 38.921875 18.851562 L 38.921875 41.453125 C 45.394531 41.453125 49.59375 36.152344 51.210938 29.726562 " fill-opacity="1" fill-rule="nonzero"/><path fill="#244a6d" d="M 51.390625 14.394531 L 50.167969 15.785156 C 50.074219 15.878906 47.390625 18.546875 38.960938 18.554688 C 30.425781 18.546875 27.78125 15.808594 27.753906 15.78125 L 26.53125 14.46875 L 26.046875 16.1875 L 25.449219 18.347656 L 25.300781 18.886719 L 25.6875 19.296875 C 25.894531 19.519531 30.890625 24.742188 38.921875 24.742188 L 39.003906 24.742188 C 47.039062 24.742188 52.035156 19.519531 52.242188 19.296875 L 52.625 18.886719 L 52.476562 18.347656 L 51.882812 16.1875 L 51.390625 14.394531 " fill-opacity="1" fill-rule="nonzero"/><path fill="#27282a" d="M 50.917969 16.9375 L 51.511719 19.09375 C 51.511719 19.09375 46.695312 24.21875 39.003906 24.21875 L 38.921875 24.21875 C 31.234375 24.21875 26.417969 19.09375 26.417969 19.09375 L 27.011719 16.9375 C 27.011719 16.9375 29.71875 15.996094 38.960938 16.003906 C 48.207031 15.996094 50.917969 16.9375 50.917969 16.9375 " fill-opacity="1" fill-rule="nonzero"/><path fill="#f8de1d" d="M 28.511719 15.300781 C 28.511719 16.046875 27.90625 16.652344 27.160156 16.652344 C 26.414062 16.652344 25.808594 16.046875 25.808594 15.300781 C 25.808594 14.554688 26.414062 13.949219 27.160156 13.949219 C 27.90625 13.949219 28.511719 14.554688 28.511719 15.300781 " fill-opacity="1" fill-rule="nonzero"/><path fill="#424446" d="M 39.003906 24.21875 C 46.695312 24.21875 51.511719 19.09375 51.511719 19.09375 L 50.917969 16.9375 C 50.917969 16.9375 48.207031 15.996094 38.960938 16.003906 L 38.960938 24.21875 L 39.003906 24.21875 " fill-opacity="1" fill-rule="nonzero"/><path fill="#f8de1d" d="M 52.203125 15.300781 C 52.203125 16.046875 51.597656 16.652344 50.851562 16.652344 C 50.105469 16.652344 49.5 16.046875 49.5 15.300781 C 49.5 14.554688 50.105469 13.949219 50.851562 13.949219 C 51.597656 13.949219 52.203125 14.554688 52.203125 15.300781 " fill-opacity="1" fill-rule="nonzero"/><path fill="#4c4d4d" d="M 25.300781 18.886719 C 25.300781 18.886719 24.964844 22.585938 26.417969 26.339844 C 27.707031 29.679688 25.921875 23.847656 26.851562 20.359375 L 25.300781 18.886719 " fill-opacity="1" fill-rule="nonzero"/><path fill="#4c4d4d" d="M 52.59375 18.886719 C 52.59375 18.886719 52.929688 22.585938 51.476562 26.339844 C 50.1875 29.679688 51.972656 23.847656 51.042969 20.359375 L 52.59375 18.886719 " fill-opacity="1" fill-rule="nonzero"/><path fill="#f8de1d" d="M 41.214844 7.164062 C 41.09375 8.640625 39.121094 8.640625 38.851562 9.257812 L 38.832031 9.304688 L 38.820312 9.257812 C 38.546875 8.640625 36.574219 8.640625 36.457031 7.164062 C 36.457031 5.902344 37.40625 4.941406 36.371094 4.222656 L 37.144531 3.597656 C 37.449219 4.082031 38.542969 4.335938 38.832031 3.535156 C 39.121094 4.335938 40.222656 4.082031 40.527344 3.597656 L 41.300781 4.222656 C 40.261719 4.941406 41.214844 5.902344 41.214844 7.164062 " fill-opacity="1" fill-rule="nonzero"/><path fill="#e5b829" d="M 38.832031 9.296875 L 38.851562 9.257812 C 39.121094 8.640625 41.09375 8.640625 41.214844 7.164062 C 41.214844 5.902344 40.261719 4.941406 41.300781 4.222656 L 40.527344 3.597656 C 40.222656 4.082031 39.128906 4.335938 38.835938 3.535156 L 38.832031 9.296875 " fill-opacity="1" fill-rule="nonzero"/></svg>